<svg id="line" xmlns="http://www.w3.org/2000/svg" width="44" height="44" viewBox="0 0 44 44">
  <circle id="Ellipse_6" data-name="Ellipse 6" cx="22" cy="22" r="22" transform="translate(0 0)" fill="#00b938"/>
  <path id="Icon_awesome-line" data-name="Icon awesome-line" d="M13.485,10.784v3.524a.157.157,0,0,1-.159.159h-.565a.164.164,0,0,1-.129-.064l-1.616-2.181v2.091a.157.157,0,0,1-.159.159h-.565a.157.157,0,0,1-.159-.159V10.789a.157.157,0,0,1,.159-.159h.56a.149.149,0,0,1,.129.069L12.6,12.88V10.789a.157.157,0,0,1,.159-.159h.565A.157.157,0,0,1,13.485,10.784Zm-4.064-.159H8.856a.157.157,0,0,0-.159.159v3.524a.157.157,0,0,0,.159.159h.565a.157.157,0,0,0,.159-.159V10.784A.16.16,0,0,0,9.421,10.625ZM8.058,13.579H6.517v-2.8a.157.157,0,0,0-.159-.159H5.793a.157.157,0,0,0-.159.159v3.524a.146.146,0,0,0,.045.109.167.167,0,0,0,.109.045H8.053a.157.157,0,0,0,.159-.159v-.565a.159.159,0,0,0-.154-.159Zm8.4-2.954H14.193a.16.16,0,0,0-.159.159v3.524a.16.16,0,0,0,.159.159h2.265a.157.157,0,0,0,.159-.159v-.565a.157.157,0,0,0-.159-.159H14.917v-.595h1.541a.157.157,0,0,0,.159-.159v-.57a.157.157,0,0,0-.159-.159H14.917v-.595h1.541a.157.157,0,0,0,.159-.159v-.565a.167.167,0,0,0-.159-.159ZM22.2,6.3V20.438a4.037,4.037,0,0,1-4.049,4.014H4.014A4.04,4.04,0,0,1,0,20.4V6.264A4.04,4.04,0,0,1,4.049,2.25H18.188A4.037,4.037,0,0,1,22.2,6.3Zm-3.053,6.076c0-3.618-3.628-6.561-8.083-6.561S2.983,8.757,2.983,12.375c0,3.241,2.874,5.957,6.76,6.472.947.2.838.55.624,1.824-.035.2-.164.8.7.436a26.122,26.122,0,0,0,6.353-4.693A5.855,5.855,0,0,0,19.149,12.375Z" transform="translate(10.899 8.649)" fill="#fff"/>
</svg>
